PathFileType	4	(X/Y/Z)	Patient4_TMGait_0pt8_01_left_04.trc.trc
DataRate	CameraRate	NumFrames	NumMarkers	Units	OrigDataRate	OrigDataStartFrame	OrigNumFrames
86.956521739130	86.956521739130	6	33	mm	86.956521739130	1	       141
Frame#	Time	Sacral			L.Shoulder			Chest			R.Shoulder			Neck			R.ASIS			L.ASIS			R.Thigh.Superior			R.Thigh.Lateral			R.Thigh.Inferior			R.Patella			L.Thigh.Superior			L.Thigh.Lateral			L.Thigh.Inferior			L.Patella			L.Shank.Superior			L.Shank.Lateral			L.Shank.Inferior			R.Shank.Superior			R.Shank.Lateral			R.Shank.Inferior			R.Heel			R.Midfoot.Superior			R.Midfoot.Lateral			R.Toe			L.Heel			L.Midfoot.Lateral			L.Midfoot.Superior			L.Toe			L.Elbow			L.Wrist			R.Elbow			R.Wrist			
		X1	Y1	Z1	X2	Y2	Z2	X3	Y3	Z3	X4	Y4	Z4	X5	Y5	Z5	X6	Y6	Z6	X7	Y7	Z7	X8	Y8	Z8	X9	Y9	Z9	X10	Y10	Z10	X11	Y11	Z11	X12	Y12	Z12	X13	Y13	Z13	X14	Y14	Z14	X15	Y15	Z15	X16	Y16	Z16	X17	Y17	Z17	X18	Y18	Z18	X19	Y19	Z19	X20	Y20	Z20	X21	Y21	Z21	X22	Y22	Z22	X23	Y23	Z23	X24	Y24	Z24	X25	Y25	Z25	X26	Y26	Z26	X27	Y27	Z27	X28	Y28	Z28	X29	Y29	Z29	X30	Y30	Z30	X31	Y31	Z31	X32	Y32	Z32	X33	Y33	Z33	

1	3.580000000000	783.774144447314	1004.083099940937	514.225798359415	953.474773129064	1436.908352685583	331.185153758030	1061.453031757877	1366.484765274748	488.872106311149	980.990229060606	1435.744465992716	666.791620709655	951.556569249241	1495.479602802970	489.287580087133	1017.113995036393	947.382699275838	624.267655559774	992.260435041524	961.004692974186	351.021246139991	1055.088650292237	743.684383625953	600.331848106116	970.609157720948	635.797691169302	659.751435816342	1048.255351869212	582.345158599475	580.638333670937	1046.184759745449	494.642613008398	585.899554829871	1075.197434843930	775.426687548819	379.310736493633	1025.857356352557	647.540364259102	304.543157865413	1131.099465049126	583.671521006532	363.575850114621	1141.648373725894	493.126652229171	357.027648211043	1071.793587739093	427.910436861752	352.038281721224	926.979770392242	391.161059456020	307.793985596804	911.659045856363	262.338438571973	363.054993160590	1019.552062807305	406.043073889077	593.369991670225	947.151324691764	301.980145620848	651.913090544283	992.732067395538	207.324277096195	590.165111022104	861.490854809350	42.480027420360	553.954003181689	1030.441646941412	97.561704101797	598.118779685146	940.993765858692	36.725234629154	633.387934863160	1149.363414927994	46.364952436289	632.008468066168	719.854604693820	203.008893312342	407.645300517149	773.682682168608	156.769685251305	324.815084622393	880.122669722929	161.865243213360	343.099578525861	953.669222106766	47.915040920484	310.262294391319	917.536981269696	1083.776316544936	219.810218169213	1041.719329379764	851.723329701882	225.547478016650	977.255234313668	1084.843389648245	787.838936074384	1112.141787805040	860.322591221567	794.721053334534	
2	3.591500000000	782.926883373509	1004.404253876535	515.976989514416	951.527343257990	1436.467027029515	331.447627719196	1060.682504880001	1366.500320841358	488.480000673844	981.909225772628	1436.236423693501	666.871343599638	950.943169164626	1495.567332822518	489.429443203291	1016.217843120250	947.172791789665	624.770793353131	990.457240367722	961.471907032156	351.589038133938	1051.346689247253	742.856595306888	599.701802384189	966.215443782198	635.677040662709	660.127998797726	1042.147587894055	581.375983748925	580.716285702701	1038.980401855595	493.935294496961	586.074225190160	1075.805945937825	779.144279511183	380.739799745645	1029.780438003718	650.546584625366	305.380915722909	1135.530600234627	588.716338443543	364.943246528291	1148.436480204490	499.103144332849	358.020056092876	1082.045449647551	431.744360191470	352.443626169090	939.968889020061	387.112444333648	308.447657942582	932.658684411087	257.703457375339	362.827691490328	1011.839237739662	405.461607276957	593.513102173998	939.112047631131	301.693683942012	651.990307029352	983.878398212028	206.921139382589	590.137327043850	851.740897256619	42.451595193557	553.915162019387	1020.681679655185	97.445633615640	598.031001221373	931.289645455726	36.652133833377	633.298761710578	1139.655915822948	46.217078971989	632.076463194380	745.948055041831	186.945874506724	407.739242100024	801.628964839024	144.787525160931	324.305350939812	907.180191133752	156.187662795840	342.214411818571	986.908895233543	47.768467538699	308.104330682382	911.356456579966	1083.090636793146	222.265835074546	1019.212017745761	845.194057519028	227.432886135398	989.612706071621	1086.785993186028	789.645713577599	1138.442675433377	873.397120808491	793.453972030204	
3	3.603000000000	782.081454831641	1004.702431268858	517.674676933874	949.633454094044	1436.017550728727	331.695599182708	1059.934703073029	1366.486890239007	488.082921661424	982.814676146287	1436.691068163987	666.938243282019	950.355813698252	1495.630282374117	489.560196414093	1015.340840007277	946.959260466559	625.261707813523	988.685119014032	961.892084544335	352.138577332897	1047.668681496245	742.027258378115	599.129159091051	961.855999653090	635.551806287917	660.524318798397	1036.119104278725	580.411262903960	580.818457991793	1031.857140670278	493.232173650774	586.263756039911	1076.340129476496	782.723446179040	382.140924292990	1033.512482323004	653.442765201037	306.209290138767	1139.728270853910	593.574297601997	366.294695465936	1154.940923091179	504.920833540281	358.981505736614	1092.022423595484	435.484409669610	352.818618522499	952.799375067875	382.981644079615	309.056668850328	953.530080140639	253.093153297486	362.553171245287	1004.223469792895	404.894073214549	593.670842095156	931.166114584088	301.417327603359	652.089511261852	975.124152752891	206.525665415496	590.119629146774	842.117313705278	42.426594730944	553.888029921051	1011.043902493243	97.332481713857	597.950315176515	921.703658612547	36.582132680322	633.217423371462	1130.067444287261	46.065705430091	632.144937748763	772.085642333445	170.961805757777	407.785939202316	829.529951753086	132.932174341327	323.733786585132	934.105624208347	150.617877496774	341.283873543620	1019.927753709719	47.819500007846	305.862398567925	905.224450447856	1082.416406466982	224.679495920275	997.000345829620	838.986249122153	229.298656811510	1001.782720793995	1088.744540324858	791.388849312317	1164.281223207011	886.546105922691	792.085115679875	
4	3.614500000000	781.245917701099	1004.953923660286	519.270695407087	947.844640717972	1435.547236688036	331.908561582234	1059.235332154354	1366.410440540579	487.665859320754	983.706103662160	1437.071106751666	666.969047975458	949.823798439352	1495.639338448832	489.661838610933	1014.505519456637	946.730725977792	625.724354577151	986.976017391413	962.214421478909	352.644279667082	1044.088340829047	741.180419601915	598.669707251418	957.516389019128	635.417000915834	660.950041595162	1030.188485264417	579.445401932523	580.966865336134	1024.830012932559	492.528528424388	586.480116044007	1076.704495451925	785.998945899824	383.477927183753	1036.839106100520	656.096980113676	306.993106590423	1143.434104128738	598.035432397570	367.601377648705	1160.862674138632	510.431135357212	359.888003772710	1101.477746748156	439.061837160758	353.139577721124	965.439047457176	378.690643285155	309.553408918652	974.295813281219	248.593674992261	362.194230061366	996.724356281303	404.351343445556	593.853697616392	923.320356172665	301.162941723681	652.227788154688	966.475576335742	206.145207326477	590.121291890123	832.641199810236	42.408983598139	553.883620608526	1001.547168041496	97.223197169755	597.884041327893	912.250093055740	36.518680767454	633.150701556015	1120.613743863018	45.903784377189	632.214913919845	798.543061371984	155.182907549727	407.713822511990	857.623159636331	121.374792364643	323.060112776676	961.003085982345	145.336515820839	340.296363023047	1052.761821037855	48.380276419494	303.588014018821	899.108955473711	1081.793942862950	227.009894927386	975.251242937485	833.419667765543	231.143947130790	1013.664775512632	1090.759373424990	792.985196729457	1189.304898699871	900.028902928132	790.458674994033	
5	3.626000000000	780.430284436240	1005.141160302485	520.727076786249	946.203901751804	1435.046826237300	332.068269144858	1058.607322052450	1366.243226070952	487.214182822016	984.588240203562	1437.348178138024	666.941743774063	949.372476922396	1495.571054117463	489.717661228946	1013.730997296508	946.476224122980	626.144064786072	985.359391024589	962.398982980393	353.081082740713	1040.626152396703	740.298897926759	598.370753515419	953.171462039500	635.269036674772	661.405781757871	1024.355223878865	578.470125498924	581.181415993689	1017.895115914671	491.819445803466	586.733274781745	1076.813934864581	788.825264743682	384.719101765675	1039.577863626832	658.390125986113	307.695199745523	1146.428417811056	601.918762386580	368.835435362477	1165.957091986832	515.515291128408	360.722210591947	1110.218221091748	442.428659716417	353.397272263378	977.906658262077	374.189514823780	309.865806742832	995.002234322669	244.312133205788	361.733292015680	989.335128893819	403.839476298882	594.066950343768	915.556416321117	300.940111582819	652.414019310687	957.915757730883	205.785929671002	590.148532175372	823.302140350152	42.401303428626	553.909822382167	992.181158299695	97.117732096893	597.837852995003	902.914926357380	36.464393209457	633.103337124964	1111.282493957239	45.724712159553	632.287825756618	825.584169673234	139.765082927297	407.446435075433	886.169402559435	110.298552704231	322.259435403118	988.008138743916	140.533806210060	339.268872008077	1085.493717814873	49.751883023029	301.402958750962	892.962475893246	1081.269266455202	229.219853147228	954.085095433844	828.748408976936	232.972756208519	1025.195314829195	1092.867819146379	794.360598193694	1213.242211147214	914.093640764224	788.436198316913	
6	3.637500000000	779.648071052301	1005.253871701002	522.017544839114	944.743935287476	1434.511820845506	332.159776470029	1058.069560303856	1365.966878400784	486.715385556203	985.468971650121	1437.505372368837	666.837336113518	949.021256726223	1495.409869388087	489.713386257466	1013.031872040772	946.185459276427	626.507600289316	983.861393643511	962.419479490804	353.426585839596	1037.292921458375	739.367292928492	598.264390472453	948.794732432399	635.106271436894	661.882359762645	1018.608618147850	577.477183500386	581.476037361166	1011.040362875764	491.100458197668	587.028302338561	1076.602475177660	791.085517072005	385.837031626960	1041.592336383425	660.224440429028	308.276725536226	1148.548560487719	605.083418230082	369.969087673089	1170.050405725015	520.087461412077	361.474009295867	1118.108851574920	445.557190403049	353.597047035498	990.247962968125	369.472112744430	309.925282463107	1015.676683335898	240.375989758609	361.176152894186	982.034250033753	403.359407675218	594.308749414764	907.843862263013	300.755972221283	652.647675662973	949.418165960044	205.452750059196	590.203635012005	814.071524814807	42.404624972784	553.970112635129	982.919768823683	97.015201716444	597.815246643667	893.669486980067	36.420816046825	633.077367048636	1102.046892514852	45.523245724416	632.365095913881	853.382833029662	124.910653452130	406.913463084937	915.374802750833	99.901878445544	321.330214175227	1015.225779308964	136.399972868131	338.248954178830	1118.185854464217	52.189991206985	299.496614640607	886.735506072806	1080.891593373965	231.275867452012	933.597758527416	825.141153648040	234.790689909485	1036.336402036514	1095.096990882314	795.453672270187	1235.889159058332	928.931520460059	785.912970371279	
